HIERARCHY
ROOT Hips
{
	OFFSET 0.00000 0.00000 0.00000
	CHANNELS 6 Xposition Yposition Zposition Yrotation Zrotation Xrotation 
	JOINT Lumbar
	{
		OFFSET 0 0 0
		CHANNELS 3 Zrotation Xrotation Yrotation
		JOINT Neck
		{
			OFFSET 0.00 0.2701 0.00
			CHANNELS 3 Zrotation Xrotation Yrotation
			End Site
			{
				OFFSET 0.00 0.1379 0.00
			}
		}
		JOINT RightShoulder
		{
			OFFSET 0.0119 0.2289 0.1181
			CHANNELS 3 Zrotation Xrotation Yrotation
			JOINT RightElbow
			{
				OFFSET 0.00 -0.1475 0.00
				CHANNELS 2 Zrotation Yrotation
				JOINT RightWrist
				{
					OFFSET 0.00 -0.1605 0.00
					CHANNELS 2 Zrotation Xrotation
					End Site
					{
						OFFSET 0.0040 -0.1068 0.0006
					}
				}
			}
		}
		JOINT LeftShoulder
		{
			OFFSET 0.0119 0.2289 -0.1181
			CHANNELS 3 Zrotation Xrotation Yrotation
			JOINT LeftElbow
			{
				OFFSET 0.00 -0.1475 0.00
				CHANNELS 2 Zrotation Yrotation
				JOINT LeftWrist
				{
					OFFSET 0.00 -0.1605 0.00
					CHANNELS 2 Zrotation Xrotation
					End Site
					{
						OFFSET 0.0040 -0.1068 -0.0006
					}
				}
			}
		}
	}
	JOINT RightHip
	{
		OFFSET 0.0316 -0.0424 0.0458
		CHANNELS 3 Zrotation Xrotation Yrotation
		JOINT RightKnee
		{
			OFFSET 0.00 -0.2438 0.00
			CHANNELS 1 Zrotation
			JOINT RightAnkle
			{
				OFFSET 0.00 -0.2449 0.00
				CHANNELS 3 Zrotation Xrotation Yrotation
				End Site
				{
					OFFSET 0.1237 -0.0542 0.0051
				}
			}
		}
	}
	JOINT LeftHip
	{
		OFFSET 0.0316 -0.0424 -0.0458
		CHANNELS 3 Zrotation Xrotation Yrotation
		JOINT LeftKnee
		{
			OFFSET 0.00 -0.2438 0.00
			CHANNELS 1 Zrotation
			JOINT LeftAnkle
			{
				OFFSET 0.00 -0.2449 0.00
				CHANNELS 3 Zrotation Xrotation Yrotation
				End Site
				{
					OFFSET 0.1237 -0.0542 -0.0051
				}
			}
		}
	}
}
MOTION
Frames: 14
Frame Time: 0.02
-0 0.57926 -0 174.9886 0 3.39571 8.69591 -1.37884 -0.97078 -34.75926 4.3102 4.6292 26.66172 -16.16927 2.54135 10.13694 80.84691 -0.23012 1.28301 28.71144 2.2977 -8.42907 7.71138 -76.07921 -6.85376 1.00142 2.91071 1.35973 11.56067 -22.72337 11.83366 -10.50797 -15.54686 2.49605 -4.17044 -11.14647 -18.53429 8.23938 8.18018 13.88516
0.00021 0.57926 0.0001 174.98579 0 3.38052 8.67059 -1.37949 -1.0074 -34.7757 4.3875 4.71024 26.67436 -16.30166 2.67526 10.15888 80.91624 -0.22551 1.28162 28.72688 2.17573 -8.41805 7.69962 -76.03577 -6.82719 1.00689 2.94345 1.37114 11.56169 -22.74265 11.83823 -10.46082 -15.54858 2.54702 -4.17763 -11.18957 -18.60042 8.24087 8.18202 13.93067
0.00042 0.57926 0.00021 174.982 0 3.3654 8.6455 -1.37998 -1.04357 -34.79319 4.46439 4.79106 26.68795 -16.43364 2.80825 10.18078 80.98508 -0.22098 1.28023 28.74318 2.05422 -8.407 7.68798 -75.99309 -6.80081 1.01218 2.97603 1.38236 11.56388 -22.76176 11.84274 -10.41429 -15.55013 2.5977 -4.18487 -11.23159 -18.66642 8.24246 8.18384 13.9761
0.00063 0.57926 0.00031 174.97556 0 3.35077 8.62143 -1.38047 -1.07809 -34.81557 4.54056 4.87205 26.70568 -16.56521 2.93896 10.20276 81.0526 -0.21674 1.27886 28.76411 1.93316 -8.3957 7.67617 -75.95334 -6.77478 1.01669 3.00835 1.39295 11.56944 -22.78079 11.84709 -10.36994 -15.55123 2.64752 -4.19249 -11.27096 -18.73187 8.24415 8.18537 14.02171
0.00086 0.57925 0.00041 174.98474 0 3.33396 8.59241 -1.38175 -1.1211 -34.81271 4.6207 4.95247 26.70172 -16.69885 3.08182 10.22432 81.12709 -0.21094 1.27745 28.76178 1.80948 -8.38574 7.66465 -75.89842 -6.74674 1.02517 3.04214 1.40689 11.55554 -22.80074 11.8523 -10.31424 -15.55501 2.70173 -4.19822 -11.32589 -18.79945 8.2449 8.18815 14.0664
0.00105 0.57925 0.00053 174.9598 0 3.32152 8.57358 -1.38082 -1.14632 -34.86278 4.69229 5.03379 26.74348 -16.82804 3.19878 10.24675 81.1868 -0.20845 1.27608 28.80778 1.69163 -8.37293 7.65292 -75.87538 -6.72309 1.02536 3.07273 1.41376 11.58391 -22.81842 11.85569 -10.28249 -15.55291 2.74672 -4.20786 -11.34683 -18.86298 8.2479 8.18849 14.11296
0.00115 0.57925 0.00066 174.84492 0 3.32351 8.58575 -1.37819 -1.11951 -35.06972 4.74225 5.1219 26.91866 -16.94791 3.24544 10.27237 81.20546 -0.21542 1.27512 29.00057 1.5855 -8.35194 7.63701 -75.94532 -6.7103 1.00104 3.09551 1.40011 11.72497 -22.83285 11.85397 -10.31942 -15.53541 2.76534 -4.22981 -11.27917 -18.91224 8.25522 8.18009 14.1665
0.00123 0.57925 0.00081 174.69443 0 3.32948 8.60765 -1.37256 -1.07528 -35.32831 4.7834 5.21034 27.13876 -17.06304 3.26574 10.29881 81.20927 -0.22567 1.27419 29.23976 1.48582 -8.32819 7.62154 -76.04661 -6.70213 0.96864 3.11499 1.37944 11.90959 -22.84457 11.85044 -10.38016 -15.51162 2.77475 -4.25549 -11.17593 -18.95797 8.26517 8.16959 14.22166
0.00132 0.57925 0.00096 174.55757 0 3.33206 8.62329 -1.36538 -1.04085 -35.55669 4.82719 5.29578 27.33406 -17.17836 3.29743 10.32431 81.22004 -0.23422 1.27294 29.44951 1.386 -8.30577 7.60816 -76.13049 -6.69268 0.94097 3.13526 1.36269 12.07713 -22.85543 11.84773 -10.42834 -15.49043 2.7891 -4.27845 -11.08568 -19.00753 8.27516 8.16133 14.27491
0.00141 0.57925 0.00108 174.43242 0 3.34126 8.64684 -1.37033 -0.99839 -35.81375 4.87623 5.3927 27.54838 -17.30129 3.33179 10.35193 81.22988 -0.24364 1.27271 29.69517 1.27482 -8.28271 7.58508 -76.22777 -6.67989 0.90881 3.15819 1.34311 12.23329 -22.87461 11.8449 -10.48365 -15.47115 2.80064 -4.30559 -11.00968 -19.04805 8.2799 8.14761 14.33299
0.00149 0.57926 0.00128 174.27325 0 3.33771 8.65605 -1.34954 -0.96862 -36.02301 4.91287 5.46644 27.7331 -17.40805 3.3541 10.37567 81.23816 -0.25206 1.27073 29.87622 1.1883 -8.26072 7.58234 -76.30449 -6.67502 0.8841 3.17518 1.32745 12.42336 -22.87645 11.84205 -10.53004 -15.44538 2.81538 -4.3251 -10.89451 -19.1061 8.29626 8.14477 14.38155
0.00156 0.57928 0.00167 174.03854 0 3.29721 8.62464 -1.25623 -0.97716 -36.09113 4.91206 5.47071 27.83106 -17.46469 3.35152 10.38571 81.24532 -0.25677 1.26068 29.87527 1.17276 -8.23827 7.63526 -76.31769 -6.69157 0.88145 3.1734 1.32683 12.69807 -22.82597 11.8383 -10.54363 -15.41211 2.8452 -4.32116 -10.68867 -19.21735 8.34345 8.17261 14.40207
0.00161 0.57932 0.00215 173.76888 0 3.24393 8.57822 -1.13756 -0.99927 -36.10908 4.90011 5.4527 27.89688 -17.50652 3.33732 10.39234 81.25142 -0.26043 1.24939 29.80664 1.1809 -8.21716 7.70853 -76.30889 -6.71555 0.8865 3.1664 1.32991 13.00533 -22.75922 11.83489 -10.54786 -15.37096 2.87777 -4.30976 -10.44286 -19.34558 8.40238 8.21146 14.41316
0.00166 0.57935 0.00259 173.50899 0 3.197 8.5378 -1.03186 -1.01576 -36.14729 4.89676 5.44837 27.97311 -17.55942 3.32722 10.40235 81.25836 -0.26463 1.24089 29.76343 1.17536 -8.19891 7.77298 -76.30963 -6.73603 0.88856 3.16381 1.32972 13.29635 -22.70308 11.83212 -10.55791 -15.3275 2.90652 -4.30266 -10.20976 -19.46348 8.4563 8.24517 14.42949
